External Loads File
version=1
nRows=39
nColumns=13
Range=5.000000e-03-10 seconds
endheader
time 	forceRightX 	forceRightY 	forceRightZ 	pointRightX 	pointRightY 	pointRightZ 	forceLeftX 	forceLeftY 	forceLeftZ 	pointLeftX 	pointLeftY 	pointLeftZ 		
0.005000 39.130155 162.019805 -0.000000 0.134421 0.198767 -0.147745 -12.051195 91.962380 -0.000000 0.345649 0.460705 -0.381474
0.010000 38.755865 162.211588 -0.000000 0.134611 0.198653 -0.147741 -11.912179 92.008976 -0.000000 0.345476 0.460868 -0.381460
0.015000 38.436445 162.388028 -0.000000 0.134784 0.198523 -0.147733 -11.777496 92.062554 -0.000000 0.345324 0.461008 -0.381462
0.020000 38.212274 162.572787 -0.000000 0.134896 0.198374 -0.147756 -11.628864 92.160768 -0.000000 0.345183 0.461177 -0.381462
0.025000 38.123467 162.765571 -0.000000 0.135027 0.198280 -0.147756 -11.461585 92.327839 -0.000000 0.345027 0.461263 -0.381453
0.030000 38.157145 162.943903 -0.000000 0.135138 0.198245 -0.147766 -11.302864 92.575567 -0.000000 0.344974 0.461479 -0.381428
0.035000 38.290912 163.067008 -0.000000 0.135214 0.198161 -0.147760 -11.188288 92.890054 -0.000000 0.344890 0.461535 -0.381433
0.040000 38.483377 163.112343 -0.000000 0.135285 0.198110 -0.147757 -11.146087 93.252685 -0.000000 0.344829 0.461580 -0.381432
0.045000 38.734501 163.086692 -0.000000 0.135346 0.198087 -0.147756 -11.153282 93.671062 -0.000000 0.344797 0.461603 -0.381424
0.050000 39.074972 163.023814 -0.000000 0.135370 0.198104 -0.147754 -11.163321 94.164847 -0.000000 0.344784 0.461594 -0.381423
0.055000 39.497773 162.971737 -0.000000 0.135385 0.198128 -0.147756 -11.165670 94.740421 -0.000000 0.344782 0.461567 -0.381425
0.060000 40.020555 162.943488 -0.000000 0.135384 0.198168 -0.147760 -11.155303 95.387337 -0.000000 0.344804 0.461513 -0.381435
0.065000 40.637678 162.920579 -0.000000 0.135355 0.198275 -0.147754 -11.144139 96.081613 -0.000000 0.344838 0.461437 -0.381438
0.070000 41.278538 162.881618 -0.000000 0.135306 0.198360 -0.147770 -11.165023 96.796953 -0.000000 0.344890 0.461359 -0.381424
0.075000 41.905622 162.788805 -0.000000 0.135246 0.198452 -0.147779 -11.228027 97.498771 -0.000000 0.344955 0.461238 -0.381434
0.080000 42.445750 162.614876 -0.000000 0.135177 0.198569 -0.147767 -11.375475 98.129590 -0.000000 0.345020 0.461128 -0.381440
0.085000 42.841962 162.353007 -0.000000 0.135109 0.198662 -0.147777 -11.633515 98.642451 -0.000000 0.345087 0.461022 -0.381440
0.090000 43.098966 162.013712 -0.000000 0.135047 0.198786 -0.147770 -11.989761 99.014162 -0.000000 0.345151 0.460926 -0.381442
0.095000 43.241858 161.617741 -0.000000 0.134977 0.198883 -0.147754 -12.441208 99.226078 -0.000000 0.345217 0.460806 -0.381442
0.100000 43.310469 161.176703 -0.000000 0.134898 0.198980 -0.147759 -12.979839 99.272479 -0.000000 0.345289 0.460694 -0.381449
0.105000 43.352925 160.685122 -0.000000 0.134815 0.199076 -0.147758 -13.568989 99.167155 -0.000000 0.345365 0.460550 -0.381449
0.110000 43.417223 160.126440 -0.000000 0.134739 0.199229 -0.147775 -14.145444 98.945418 -0.000000 0.345441 0.460327 -0.381444
0.115000 43.444357 159.519770 -0.000000 0.134650 0.199347 -0.147772 -14.692983 98.671645 -0.000000 0.345508 0.460171 -0.381454
0.120000 43.459730 158.883395 -0.000000 0.134571 0.199483 -0.147776 -15.153239 98.432805 -0.000000 0.345579 0.460033 -0.381457
0.125000 43.462866 158.260649 -0.000000 0.134501 0.199614 -0.147775 -15.517435 98.288948 -0.000000 0.345637 0.459872 -0.381471
0.130000 43.450537 157.695134 -0.000000 0.134420 0.199735 -0.147785 -15.795863 98.277802 -0.000000 0.345699 0.459738 -0.381467
0.135000 43.411605 157.215495 -0.000000 0.134378 0.199875 -0.147772 -16.008253 98.407096 -0.000000 0.345741 0.459607 -0.381477
0.140000 43.356365 156.825479 -0.000000 0.134329 0.200020 -0.147774 -16.154405 98.648053 -0.000000 0.345783 0.459495 -0.381489
0.145000 43.243678 156.534744 -0.000000 0.134292 0.200128 -0.147775 -16.240867 98.958615 -0.000000 0.345797 0.459411 -0.381486
0.150000 43.090260 156.338945 -0.000000 0.134262 0.200200 -0.147782 -16.240453 99.301072 -0.000000 0.345811 0.459321 -0.381473
0.155000 42.909695 156.232626 -0.000000 0.134235 0.200279 -0.147787 -16.163027 99.624702 -0.000000 0.345829 0.459243 -0.381476
0.160000 42.719432 156.195117 -0.000000 0.134202 0.200351 -0.147791 -16.034069 99.886701 -0.000000 0.345859 0.459154 -0.381478
0.165000 42.514767 156.201345 -0.000000 0.134180 0.200435 -0.147793 -15.902689 100.055867 -0.000000 0.345874 0.459084 -0.381484
0.170000 42.335797 156.220527 -0.000000 0.134141 0.200532 -0.147796 -15.793425 100.119050 -0.000000 0.345891 0.459019 -0.381483
0.175000 42.188719 156.247747 -0.000000 0.134118 0.200616 -0.147807 -15.724236 100.091039 -0.000000 0.345927 0.458954 -0.381478
0.180000 42.076075 156.291868 -0.000000 0.134093 0.200674 -0.147792 -15.680366 100.007184 -0.000000 0.345964 0.458874 -0.381483
0.185000 41.965726 156.371554 -0.000000 0.134074 0.200729 -0.147794 -15.656148 99.898618 -0.000000 0.345991 0.458820 -0.381476
0.190000 41.872702 156.482086 -0.000000 0.134045 0.200772 -0.147810 -15.620869 99.795905 -0.000000 0.346017 0.458697 -0.381468
0.195000 41.760781 156.611671 -0.000000 0.134006 0.200820 -0.147803 -15.597362 99.701904 -0.000000 0.346072 0.458617 -0.381475
